<svg width="92" height="18" viewBox="0 0 92 18" fill="none" xmlns="http://www.w3.org/2000/svg">
<path d="M9.78447 0.307281L11.9105 6.80128H18.7875L13.2235 10.8133L15.3485 17.3073L9.78447 13.2943L4.22047 17.3073L6.34647 10.8133L0.782471 6.80128H7.66047L9.78447 0.307281Z" fill="#81B3D2"/>
<path d="M33.7845 0.307281L35.9105 6.80128H42.7875L37.2235 10.8133L39.3485 17.3073L33.7845 13.2943L28.2205 17.3073L30.3465 10.8133L24.7825 6.80128H31.6605L33.7845 0.307281Z" fill="#81B3D2"/>
<path d="M58.7845 0.307281L60.9105 6.80128H67.7875L62.2235 10.8133L64.3485 17.3073L58.7845 13.2943L53.2205 17.3073L55.3465 10.8133L49.7825 6.80128H56.6605L58.7845 0.307281Z" fill="#81B3D2"/>
<path d="M81.7845 0.307281L83.9105 6.80128H90.7875L85.2235 10.8133L87.3485 17.3073L81.7845 13.2943L76.2205 17.3073L78.3465 10.8133L72.7825 6.80128H79.6605L81.7845 0.307281Z" fill="#81B3D2"/>
</svg>
