<svg width="67" height="18" viewBox="0 0 67 18" fill="none" xmlns="http://www.w3.org/2000/svg">
<path d="M9.78447 0.307312L11.9105 6.80131H18.7875L13.2235 10.8133L15.3485 17.3073L9.78447 13.2943L4.22047 17.3073L6.34647 10.8133L0.782471 6.80131H7.66047L9.78447 0.307312Z" fill="#81B3D2"/>
<path d="M33.7845 0.307312L35.9105 6.80131H42.7875L37.2235 10.8133L39.3485 17.3073L33.7845 13.2943L28.2205 17.3073L30.3465 10.8133L24.7825 6.80131H31.6605L33.7845 0.307312Z" fill="#81B3D2"/>
<path d="M56.7845 0.307312L58.9105 6.80131H65.7875L60.2235 10.8133L62.3485 17.3073L56.7845 13.2943L51.2205 17.3073L53.3465 10.8133L47.7825 6.80131H54.6605L56.7845 0.307312Z" fill="#81B3D2"/>
</svg>
